<svg width="108" height="95" viewBox="0 0 108 95" fill="none" xmlns="http://www.w3.org/2000/svg">
<path d="M45.29 47.6498L43.04 46.8198L23.58 39.5998L0 30.8498L14.28 6.10977C14.78 5.23977 15.39 4.43977 16.08 3.72977C17.87 1.85977 20.23 0.609766 22.79 0.189766C23.46 0.0697659 24.15 0.00976562 24.83 0.00976562H49.02C47.87 0.679766 46.94 1.64977 46.29 2.76977C45.65 3.88977 45.29 5.18977 45.29 6.51977V47.6498Z" fill="url(#paint0_linear_18_5)"/>
<path d="M53.7 7.44977C50.88 4.30977 45.76 6.07977 45.32 10.1098C45.32 10.1198 45.31 10.1198 45.32 10.1298C45.31 10.2598 45.3 10.3998 45.3 10.5298V6.51977C45.3 3.83977 46.72 1.35977 49.03 0.00976562H65.75C70.11 0.00976562 74.13 2.33977 76.32 6.10977L81.38 14.8798L96.78 41.5498C98.95 45.3298 98.95 49.9798 96.78 53.7598L96.21 54.7498L79.8001 36.4998L53.71 7.46977L53.7 7.44977Z" fill="url(#paint1_linear_18_5)"/>
<path style="mix-blend-mode:overlay" opacity="0.47" d="M45.29 10.54V6.53002C45.29 3.85002 46.71 1.37002 49.02 0.0200195H57.84C46.8 1.90002 45.45 8.19002 45.31 10.12C45.31 10.13 45.3 10.13 45.31 10.14C45.29 10.32 45.29 10.45 45.29 10.54Z" fill="url(#paint2_linear_18_5)"/>
<path style="mix-blend-mode:overlay" opacity="0.48" d="M61.5499 0.150002C65.9099 0.150002 69.9299 2.48 72.1199 6.25L92.5799 41.68C94.3599 44.77 94.6599 48.44 93.5199 51.74L96.2099 54.73L96.7799 53.74C98.9499 49.96 98.9499 45.31 96.7799 41.53L76.3199 6.1C74.1299 2.33 70.1099 0 65.7499 0H49.0299C48.9599 0.04 48.8899 0.100001 48.8199 0.140001H61.5499V0.150002Z" fill="url(#paint3_linear_18_5)"/>
<path style="mix-blend-mode:overlay" opacity="0.14" d="M96.21 54.7301L79.8 36.4801C83.05 30.9701 82.67 22.3501 81.38 14.8701L96.78 41.5401C98.95 45.3201 98.95 49.9701 96.78 53.7501L96.21 54.7401V54.7301Z" fill="url(#paint4_linear_18_5)"/>
<path style="mix-blend-mode:overlay" opacity="0.25" d="M43.04 46.8199L0 30.8499L14.28 6.10994C16.11 2.93994 19.25 0.789941 22.8 0.189941C21.54 12.8899 24.97 29.6599 43.04 46.8199Z" fill="url(#paint5_linear_18_5)"/>
<path style="mix-blend-mode:overlay" opacity="0.48" d="M23.58 39.6L0 30.85L14.28 6.10998C14.78 5.23998 15.39 4.43998 16.08 3.72998L5.4 29.1L23.58 39.6Z" fill="url(#paint6_linear_18_5)"/>
<path d="M61.7599 46.6899L64.0099 47.5199L83.4699 54.7399L107.05 63.4899L92.7699 88.2299C92.2699 89.0999 91.6599 89.8999 90.9699 90.6099C89.1799 92.4799 86.8199 93.7299 84.2599 94.1499C83.5899 94.2699 82.8999 94.3299 82.2199 94.3299H58.0299C59.1799 93.6599 60.1099 92.6899 60.7599 91.5699C61.3999 90.4499 61.7599 89.1499 61.7599 87.8199V46.6899Z" fill="url(#paint7_linear_18_5)"/>
<path d="M53.35 86.8801C56.17 90.0201 61.29 88.2501 61.73 84.2201C61.73 84.2101 61.74 84.2101 61.73 84.2001C61.74 84.0701 61.75 83.9301 61.75 83.8001V87.8101C61.75 90.4901 60.33 92.9701 58.02 94.3201H41.3C36.94 94.3201 32.92 91.9901 30.73 88.2201L25.67 79.4501L10.27 52.7801C8.09996 49.0001 8.09996 44.3501 10.27 40.5701L10.84 39.5801L27.25 57.8301L53.34 86.8601L53.35 86.8801Z" fill="url(#paint8_linear_18_5)"/>
<path style="mix-blend-mode:overlay" opacity="0.47" d="M61.76 83.8003V87.8103C61.76 90.4903 60.34 92.9703 58.03 94.3203H49.21C60.25 92.4403 61.6 86.1503 61.74 84.2203C61.74 84.2103 61.75 84.2103 61.74 84.2003C61.76 84.0203 61.76 83.8903 61.76 83.8003Z" fill="url(#paint9_linear_18_5)"/>
<path style="mix-blend-mode:overlay" opacity="0.48" d="M45.5 94.1899C41.14 94.1899 37.12 91.8599 34.93 88.0899L14.47 52.6599C12.69 49.5699 12.39 45.8999 13.53 42.5999L10.84 39.6099L10.27 40.5999C8.09996 44.3799 8.09996 49.0299 10.27 52.8099L30.73 88.2399C32.92 92.0099 36.94 94.3399 41.3 94.3399H58.02C58.09 94.2999 58.16 94.2399 58.23 94.1999H45.5V94.1899Z" fill="url(#paint10_linear_18_5)"/>
<path style="mix-blend-mode:overlay" opacity="0.14" d="M10.85 39.5998L27.26 57.8498C24.01 63.3598 24.39 71.9798 25.68 79.4598L10.28 52.7898C8.10997 49.0098 8.10997 44.3598 10.28 40.5798L10.85 39.5898V39.5998Z" fill="url(#paint11_linear_18_5)"/>
<path style="mix-blend-mode:overlay" opacity="0.25" d="M64.01 47.52L107.05 63.49L92.77 88.23C90.94 91.4 87.8 93.55 84.25 94.15C85.51 81.45 82.08 64.68 64.01 47.52Z" fill="url(#paint12_linear_18_5)"/>
<path style="mix-blend-mode:overlay" opacity="0.48" d="M83.47 54.73L107.05 63.48L92.77 88.22C92.27 89.09 91.66 89.89 90.97 90.6L101.65 65.23L83.47 54.73Z" fill="url(#paint13_linear_18_5)"/>
<defs>
<linearGradient id="paint0_linear_18_5" x1="-14.5" y1="57.0598" x2="61.44" y2="4.09977" gradientUnits="userSpaceOnUse">
<stop stop-color="#FF8104"/>
<stop offset="1" stop-color="#FFC933"/>
</linearGradient>
<linearGradient id="paint1_linear_18_5" x1="45.64" y1="-6.42023" x2="104.67" y2="49.6198" gradientUnits="userSpaceOnUse">
<stop stop-color="#FF8104"/>
<stop offset="1" stop-color="#FFC933"/>
</linearGradient>
<linearGradient id="paint2_linear_18_5" x1="35.32" y1="6.24002" x2="65.21" y2="3.81002" gradientUnits="userSpaceOnUse">
<stop/>
<stop offset="1" stop-opacity="0"/>
</linearGradient>
<linearGradient id="paint3_linear_18_5" x1="46.8599" y1="-7.33" x2="105.7" y2="48.53" gradientUnits="userSpaceOnUse">
<stop stop-color="white"/>
<stop offset="1" stop-color="white" stop-opacity="0"/>
</linearGradient>
<linearGradient id="paint4_linear_18_5" x1="82.32" y1="28.1901" x2="89.37" y2="38.4201" gradientUnits="userSpaceOnUse">
<stop stop-color="white"/>
<stop offset="1" stop-color="white" stop-opacity="0"/>
</linearGradient>
<linearGradient id="paint5_linear_18_5" x1="39.86" y1="22.0499" x2="0.439999" y2="30.2699" gradientUnits="userSpaceOnUse">
<stop/>
<stop offset="1" stop-opacity="0"/>
</linearGradient>
<linearGradient id="paint6_linear_18_5" x1="-16.92" y1="24.65" x2="34.07" y2="20.51" gradientUnits="userSpaceOnUse">
<stop stop-color="white"/>
<stop offset="1" stop-color="white" stop-opacity="0"/>
</linearGradient>
<linearGradient id="paint7_linear_18_5" x1="121.55" y1="37.2699" x2="45.6099" y2="90.2399" gradientUnits="userSpaceOnUse">
<stop stop-color="#282AB3"/>
<stop offset="1" stop-color="#0087CD"/>
</linearGradient>
<linearGradient id="paint8_linear_18_5" x1="61.41" y1="100.76" x2="2.37995" y2="44.7101" gradientUnits="userSpaceOnUse">
<stop stop-color="#282AB3"/>
<stop offset="1" stop-color="#0087CD"/>
</linearGradient>
<linearGradient id="paint9_linear_18_5" x1="71.73" y1="88.1003" x2="41.83" y2="90.5303" gradientUnits="userSpaceOnUse">
<stop/>
<stop offset="1" stop-opacity="0"/>
</linearGradient>
<linearGradient id="paint10_linear_18_5" x1="60.19" y1="101.66" x2="1.34996" y2="45.8099" gradientUnits="userSpaceOnUse">
<stop stop-color="white"/>
<stop offset="1" stop-color="white" stop-opacity="0"/>
</linearGradient>
<linearGradient id="paint11_linear_18_5" x1="24.73" y1="66.1498" x2="17.68" y2="55.9198" gradientUnits="userSpaceOnUse">
<stop stop-color="white"/>
<stop offset="1" stop-color="white" stop-opacity="0"/>
</linearGradient>
<linearGradient id="paint12_linear_18_5" x1="67.19" y1="72.28" x2="106.6" y2="64.06" gradientUnits="userSpaceOnUse">
<stop/>
<stop offset="1" stop-opacity="0"/>
</linearGradient>
<linearGradient id="paint13_linear_18_5" x1="123.97" y1="69.68" x2="72.98" y2="73.83" gradientUnits="userSpaceOnUse">
<stop stop-color="white"/>
<stop offset="1" stop-color="white" stop-opacity="0"/>
</linearGradient>
</defs>
</svg>
